<?xml version="1.0" standalone="no"?>
<!DOCTYPE svg PUBLIC "-//W3C//DTD SVG 1.0//EN" "http://www.w3.org/TR/2001/REC-SVG-20010904/DTD/svg10.dtd">
<svg xmlns="http://www.w3.org/2000/svg" xmlns:xlink="http://www.w3.org/1999/xlink" id="body_1" width="45" height="34">

<g transform="matrix(0.0703125 0 0 0.0703125 -0 0.12499952)">
	<g transform="matrix(16.33 0 0 15.51 309.26 229.21)">
        <path transform="matrix(1 0 0 1 -14.67 -15.52)"  d="M10.891 26.034L9.491 24.79C 8.791 24.160002 8.251 23.380001 7.9110003 22.5L7.9110003 22.5L5.9 16.95C 5.73 16.480001 5.9500003 15.960001 6.4 15.750001C 6.639 15.640001 6.879 15.590001 7.129 15.590001C 7.7590003 15.590001 8.369 15.941001 8.679 16.54L8.679 16.54L10.519 20.240002C 11.139 19.780003 11.499001 19.050001 11.499001 18.29L11.499001 18.29L11.499001 6.5C 11.5 5.67 12.17 5 13 5C 13.83 5 14.5 5.67 14.5 6.5L14.5 6.5L14.5 14.5C 14.5 13.67 15.17 13 16 13C 16.83 13 17.5 13.67 17.5 14.5L17.5 14.5L17.5 15C 17.5 14.17 18.17 13.5 19 13.5C 19.83 13.5 20.5 14.17 20.5 15L20.5 15L20.5 16C 20.5 15.17 21.17 14.5 22 14.5C 22.83 14.5 23.5 15.17 23.5 16L23.5 16L23.5 24.09C 23.5 24.765 23.298 25.423 22.927 25.981" stroke="#000000" stroke-width="1" stroke-linecap="square" fill="white" />
	</g>
	<g transform="matrix(16.33 0 0 15.51 230.01 40.02)">
        <path d="M0.3535 0.3535L-0.3535 -0.3535" stroke="#000000" stroke-width="1" stroke-linecap="square" fill="white" />
	</g>
	<g transform="matrix(16.33 0 0 15.51 281.97 19.56)">
        <path d="M0 0.5L0 -0.5" stroke="#000000" stroke-width="1" stroke-linecap="square" fill="white" />
	</g>
	<g transform="matrix(16.33 0 0 15.51 333.9 40.02)">
        <path d="M-0.3535 0.3535L0.3535 -0.3535" stroke="#000000" stroke-width="1" stroke-linecap="square" fill="white" />
	</g>
	<g transform="matrix(16.33 0 0 15.51 355.43 89.35)">
        <path d="M-0.5 0L0.5 0" stroke="#000000" stroke-width="1" stroke-linecap="square" fill="white" />
	</g>
	<g transform="matrix(16.33 0 0 15.51 208.49 89.35)">
        <path d="M-0.5 0L0.5 0" stroke="#000000" stroke-width="1" stroke-linecap="square" fill="white" />
	</g>
	<g transform="matrix(16.33 0 0 15.51 347.27 438.35)">
        <path d="M-6.5 1.5L-6.5 -1.5L6.5 -1.5L6.5 1.5" stroke="#000000" stroke-width="1" stroke-linecap="square" fill="white" />
	</g>
	<g transform="matrix(16.33 0 0 15.51 309.26 229.21)">
        <path transform="matrix(1 0 0 1 -14.67 -15.52)"  d="M10.891 26.034L9.491 24.79C 8.791 24.160002 8.251 23.380001 7.9110003 22.5L7.9110003 22.5L5.9 16.95C 5.73 16.480001 5.9500003 15.960001 6.4 15.750001C 6.639 15.640001 6.879 15.590001 7.129 15.590001C 7.7590003 15.590001 8.369 15.941001 8.679 16.54L8.679 16.54L10.519 20.240002C 11.139 19.780003 11.499001 19.050001 11.499001 18.29L11.499001 18.29L11.499001 6.5C 11.5 5.67 12.17 5 13 5C 13.83 5 14.5 5.67 14.5 6.5L14.5 6.5L14.5 14.5C 14.5 13.67 15.17 13 16 13C 16.83 13 17.5 13.67 17.5 14.5L17.5 14.5L17.5 15C 17.5 14.17 18.17 13.5 19 13.5C 19.83 13.5 20.5 14.17 20.5 15L20.5 15L20.5 16C 20.5 15.17 21.17 14.5 22 14.5C 22.83 14.5 23.5 15.17 23.5 16L23.5 16L23.5 24.09C 23.5 24.765 23.298 25.423 22.927 25.981" stroke="#000000" stroke-width="1" stroke-linecap="square" fill="white" />
	</g>
	<g transform="matrix(16.33 0 0 15.51 230.01 40.02)">
        <path d="M0.3535 0.3535L-0.3535 -0.3535" stroke="#000000" stroke-width="1" stroke-linecap="square" fill="none" />
	</g>
	<g transform="matrix(16.33 0 0 15.51 281.97 19.56)">
        <path d="M0 0.5L0 -0.5" stroke="#000000" stroke-width="1" stroke-linecap="square" fill="none" />
	</g>
	<g transform="matrix(16.33 0 0 15.51 333.9 40.02)">
        <path d="M-0.3535 0.3535L0.3535 -0.3535" stroke="#000000" stroke-width="1" stroke-linecap="square" fill="none" />
	</g>
	<g transform="matrix(16.33 0 0 15.51 355.43 89.35)">
        <path d="M-0.5 0L0.5 0" stroke="#000000" stroke-width="1" stroke-linecap="square" fill="none" />
	</g>
	<g transform="matrix(16.33 0 0 15.51 208.49 89.35)">
        <path d="M-0.5 0L0.5 0" stroke="#000000" stroke-width="1" stroke-linecap="square" fill="none" />
	</g>
	<g transform="matrix(16.33 0 0 15.51 347.27 438.35)">
        <path d="M-6.5 1.5L-6.5 -1.5L6.5 -1.5L6.5 1.5" stroke="#000000" stroke-width="1" stroke-linecap="square" fill="none" />
	</g>
</g>
</svg>