<?xml version="1.0" encoding="utf-8"?>
<svg version="1.1" id="Layer_1" x="0px" y="0px" viewBox="0 0 330 330" style="enable-background:new 0 0 330 330;" xmlns="http://www.w3.org/2000/svg">
  <path id="XMLID_224_" d="M 318.993 226.688 L 175.401 85.925 C 172.709 83.285 169.056 81.802 165.248 81.802 C 161.439 81.802 157.787 83.286 155.094 85.925 L 11.51 226.689 C 5.903 232.186 5.903 241.098 11.51 246.596 C 17.117 252.092 26.209 252.093 31.817 246.596 L 165.248 115.786 L 298.686 246.596 C 301.49 249.344 305.165 250.718 308.84 250.718 C 312.515 250.718 316.189 249.344 318.994 246.595 C 324.6 241.097 324.6 232.185 318.993 226.688 Z" style="fill: rgb(132, 15, 209);" transform="matrix(0, 1, -1, 0, 331.511743, 1.008627)"/>
  <g/>
  <g/>
  <g/>
  <g/>
  <g/>
  <g/>
  <g/>
  <g/>
  <g/>
  <g/>
  <g/>
  <g/>
  <g/>
  <g/>
  <g/>
</svg>