<?xml version="1.0" standalone="no"?>
<!DOCTYPE svg PUBLIC "-//W3C//DTD SVG 1.0//EN" "http://www.w3.org/TR/2001/REC-SVG-20010904/DTD/svg10.dtd">
<svg xmlns="http://www.w3.org/2000/svg" xmlns:xlink="http://www.w3.org/1999/xlink" id="body_1" width="32" height="24">

<g transform="matrix(0.050000004 0 0 0.050000004 0 0)">
	<g transform="matrix(26.33 0 0 26.33 329.73 242.73)">
        <path transform="matrix(1 0 0 1 -12.06 -12.06)"  d="M4.71152 3.67446C 4.17096 3.46151 3.90067 3.35504 3.72846 3.41232C 3.57892 3.46207 3.46158 3.5794 3.41184 3.72894C 3.35455 3.90116 3.46102 4.17144 3.67397 4.71201L3.67397 4.71201L8.97461 18.1675C 9.14612 18.6028 9.23188 18.8205 9.37164 18.9079C 9.49348 18.9841 9.64219 19.0041 9.77986 18.963C 9.93778 18.9158 10.0782 18.7286 10.3589 18.3542L10.3589 18.3542L12.4996 15.5001L15.9489 20.2429C 16.1385 20.5036 16.2334 20.634 16.3542 20.6885C 16.4602 20.7363 16.5796 20.7457 16.6918 20.715C 16.8196 20.68 16.9336 20.566 17.1616 20.338L17.1616 20.338L20.3376 17.1621C 20.5655 16.9341 20.6795 16.8201 20.7145 16.6923C 20.7452 16.5801 20.7359 16.4607 20.688 16.3547C 20.6335 16.2338 20.5032 16.139 20.2424 15.9494L20.2424 15.9494L15.4996 12.5001L18.3538 10.3594C 18.7281 10.0787 18.9153 9.93827 18.9625 9.78035C 19.0036 9.64268 18.9836 9.49397 18.9074 9.37213C 18.82 9.23237 18.6024 9.14661 18.167 8.97509L18.167 8.97509L4.71152 3.67446z" stroke="#000000" stroke-width="1" stroke-linecap="square" fill="white" />
	</g>
</g>
</svg>