<?xml version="1.0" encoding="UTF-8" standalone="no" ?>
<!DOCTYPE svg PUBLIC "-//W3C//DTD SVG 1.1//EN" "http://www.w3.org/Graphics/SVG/1.1/DTD/svg11.dtd">
<svg xmlns="http://www.w3.org/2000/svg" xmlns:xlink="http://www.w3.org/1999/xlink" version="1.1" width="640" height="480" viewBox="0 0 640 480" xml:space="preserve">
<desc>Created with Fabric.js 3.6.6</desc>
<defs>
</defs>
<g transform="matrix(16.54 0 0 16.54 320.22 239.28)"  >
<path style="stroke: none; stroke-width: 1; stroke-dasharray: none; stroke-linecap: butt; stroke-dashoffset: 0; stroke-linejoin: miter; stroke-miterlimit: 4; fill: rgb(255,255,255); fill-rule: nonzero; opacity: 1;"  transform=" translate(-15, -15)" d="M 17.5 15 c -0.797 0 -1.456 0.314 -1.88 0.793 c -0.424 0.48 -0.62 1.098 -0.62 1.707 c 0 0.78 -0.568 1.418 -0.81 1.607 c -0.372 0.294 -0.165 0.892 0.31 0.893 H 17 c 0.786 0 1.517 -0.23 2.072 -0.662 c 0.555 -0.432 0.928 -1.09 0.928 -1.838 c 0 -0.683 -0.193 -1.32 -0.63 -1.785 C 18.93 15.25 18.273 15 17.5 15 z m 0 1 c 0.57 0 0.914 0.16 1.14 0.4 c 0.227 0.24 0.36 0.602 0.36 1.1 c 0 0.432 -0.19 0.776 -0.54 1.05 c -0.353 0.272 -0.872 0.45 -1.46 0.45 h -1.423 c 0.237 -0.4 0.422 -0.9 0.422 -1.5 c 0 -0.39 0.13 -0.772 0.368 -1.043 c 0.24 -0.27 0.583 -0.457 1.132 -0.457 z M 29.284 5.01 c -0.126 0.015 -0.233 0.048 -0.352 0.09 c -0.238 0.08 -0.513 0.21 -0.838 0.374 c -0.65 0.33 -1.477 0.813 -2.35 1.365 c -1.75 1.103 -3.66 2.457 -4.642 3.438 c -0.935 0.934 -1.616 1.784 -1.936 2.637 c -0.32 0.852 -0.186 1.777 0.478 2.44 c 0.665 0.665 1.59 0.8 2.442 0.48 c 0.853 -0.32 1.703 -1.002 2.637 -1.936 c 0.98 -0.983 2.335 -2.893 3.44 -4.64 c 0.552 -0.876 1.035 -1.704 1.365 -2.353 c 0.165 -0.324 0.293 -0.6 0.375 -0.838 c 0.04 -0.12 0.072 -0.226 0.086 -0.352 c 0.013 -0.126 0.047 -0.327 -0.167 -0.54 c -0.214 -0.215 -0.413 -0.18 -0.54 -0.167 z m -0.647 1.444 c -0.307 0.603 -0.78 1.416 -1.32 2.27 c -1.08 1.713 -2.46 3.628 -3.3 4.468 c -0.888 0.887 -1.678 1.48 -2.283 1.707 c -0.604 0.225 -0.954 0.177 -1.383 -0.25 c -0.427 -0.43 -0.475 -0.78 -0.25 -1.384 c 0.228 -0.604 0.82 -1.394 1.71 -2.28 c 0.84 -0.84 2.754 -2.22 4.466 -3.3 c 0.856 -0.542 1.668 -1.015 2.272 -1.322 c 0.134 -0.036 0.13 0.022 0.09 0.09 z M 2.5 8 h 17 c 0.277 0 0.5 0.223 0.5 0.5 s -0.223 0.5 -0.5 0.5 h -17 c -0.277 0 -0.5 -0.223 -0.5 -0.5 s 0.223 -0.5 0.5 -0.5 z M 7 6.5 c 0 0.276 -0.224 0.5 -0.5 0.5 S 6 6.776 6 6.5 s 0.224 -0.5 0.5 -0.5 s 0.5 0.224 0.5 0.5 z m -2 0 c 0 0.276 -0.224 0.5 -0.5 0.5 S 4 6.776 4 6.5 s 0.224 -0.5 0.5 -0.5 s 0.5 0.224 0.5 0.5 z m -2 0 c 0 0.276 -0.224 0.5 -0.5 0.5 S 2 6.776 2 6.5 s 0.224 -0.5 0.5 -0.5 s 0.5 0.224 0.5 0.5 z M 1.5 4 C 0.678 4 0 4.678 0 5.5 v 19 c 0 0.822 0.678 1.5 1.5 1.5 h 25 c 0.822 0 1.5 -0.678 1.5 -1.5 v -12 c 0 -0.668 -1 -0.665 -1 0 v 12 c 0 0.286 -0.214 0.5 -0.5 0.5 h -25 c -0.286 0 -0.5 -0.214 -0.5 -0.5 v -19 c 0 -0.286 0.214 -0.5 0.5 -0.5 h 25 c 0.665 0 0.657 -1 0 -1 z" stroke-linecap="round" />
</g>
</svg>