<?xml version="1.0" encoding="UTF-8" standalone="no" ?>
<!DOCTYPE svg PUBLIC "-//W3C//DTD SVG 1.1//EN" "http://www.w3.org/Graphics/SVG/1.1/DTD/svg11.dtd">
<svg xmlns="http://www.w3.org/2000/svg" xmlns:xlink="http://www.w3.org/1999/xlink" version="1.1" width="640" height="480" viewBox="0 0 640 480" xml:space="preserve">
<desc>Created with Fabric.js 3.6.6</desc>
<defs>
</defs>
<g transform="matrix(15.25 0 0 15.25 321.92 229)"  >
<path style="stroke: none; stroke-width: 1; stroke-dasharray: none; stroke-linecap: butt; stroke-dashoffset: 0; stroke-linejoin: miter; stroke-miterlimit: 4; fill: rgb(255,255,255); fill-rule: nonzero; opacity: 1;"  transform=" translate(-15, -15)" d="M 25 24.5 c 0 0.276 -0.224 0.5 -0.5 0.5 s -0.5 -0.224 -0.5 -0.5 s 0.224 -0.5 0.5 -0.5 s 0.5 0.224 0.5 0.5 z M 23.5 12 h 2 c 0.277 0 0.5 0.223 0.5 0.5 s -0.223 0.5 -0.5 0.5 h -2 c -0.277 0 -0.5 -0.223 -0.5 -0.5 s 0.223 -0.5 0.5 -0.5 z m -3 -2 c -0.822 0 -1.5 0.678 -1.5 1.5 v 14 c 0 0.822 0.678 1.5 1.5 1.5 h 8 c 0.822 0 1.5 -0.678 1.5 -1.5 v -14 c 0 -0.822 -0.678 -1.5 -1.5 -1.5 z m 0 1 h 8 c 0.286 0 0.5 0.214 0.5 0.5 v 14 c 0 0.286 -0.214 0.5 -0.5 0.5 h -8 c -0.286 0 -0.5 -0.214 -0.5 -0.5 v -14 c 0 -0.286 0.214 -0.5 0.5 -0.5 z M 14 19.5 c 0 0.276 -0.224 0.5 -0.5 0.5 s -0.5 -0.224 -0.5 -0.5 s 0.224 -0.5 0.5 -0.5 s 0.5 0.224 0.5 0.5 z M 1.5 3 C 0.678 3 0 3.678 0 4.5 v 16 c 0 0.822 0.678 1.5 1.5 1.5 H 11 v 2 H 9.5 c -0.277 0 -0.5 0.223 -0.5 0.5 s 0.223 0.5 0.5 0.5 h 8 c 0.277 0 0.5 -0.223 0.5 -0.5 s -0.223 -0.5 -0.5 -0.5 H 16 v -2 h 1.5 c 0.668 0 0.656 -1 0 -1 h -16 c -0.286 0 -0.5 -0.214 -0.5 -0.5 V 18 h 16.5 c 0.277 0 0.5 -0.223 0.5 -0.5 s -0.223 -0.5 -0.5 -0.5 H 1 V 4.5 c 0 -0.286 0.214 -0.5 0.5 -0.5 h 24 c 0.286 0 0.5 0.214 0.5 0.5 v 4 c 0 0.665 1 0.657 1 0 v -4 c 0 -0.822 -0.678 -1.5 -1.5 -1.5 z M 12 22 h 3 v 2 h -3 z" stroke-linecap="round" />
</g>
</svg>