<?xml version="1.0" encoding="UTF-8" standalone="no" ?>
<!DOCTYPE svg PUBLIC "-//W3C//DTD SVG 1.1//EN" "http://www.w3.org/Graphics/SVG/1.1/DTD/svg11.dtd">
<svg xmlns="http://www.w3.org/2000/svg" xmlns:xlink="http://www.w3.org/1999/xlink" version="1.1" width="640" height="480" viewBox="0 0 640 480" xml:space="preserve">
<desc>Created with Fabric.js 3.6.6</desc>
<defs>
</defs>
<g transform="matrix(17.22 0 0 19.34 316.25 241.03)"  >
<path style="stroke: none; stroke-width: 1; stroke-dasharray: none; stroke-linecap: butt; stroke-dashoffset: 0; stroke-linejoin: miter; stroke-miterlimit: 4; fill: rgb(255,255,255); fill-rule: nonzero; opacity: 1;"  transform=" translate(-15, -15.5)" d="M 19.498 7 c -0.182 0 -0.35 0.1 -0.437 0.26 l -8.987 15.988 c -0.328 0.58 0.542 1.072 0.87 0.492 L 19.93 7.75 c 0.196 -0.332 -0.045 -0.75 -0.432 -0.75 z m 3.03 2 c 0.112 0.006 0.22 0.05 0.304 0.125 l 6.994 5.996 c 0.232 0.2 0.232 0.56 0 0.76 l -6.994 5.995 c -0.48 0.43 -1.14 -0.352 -0.652 -0.757 l 6.554 -5.618 l -6.554 -5.618 c -0.368 -0.308 -0.132 -0.882 0.348 -0.882 z M 7.472 9 c -0.112 0.006 -0.22 0.05 -0.304 0.125 L 0.174 15.12 c -0.232 0.2 -0.232 0.56 0 0.76 l 6.994 5.995 c 0.48 0.43 1.14 -0.352 0.652 -0.757 L 1.266 15.5 L 7.82 9.882 C 8.188 9.574 7.952 9 7.472 9 z" stroke-linecap="round" />
</g>
</svg>