<?xml version="1.0" encoding="UTF-8" standalone="no" ?>
<!DOCTYPE svg PUBLIC "-//W3C//DTD SVG 1.1//EN" "http://www.w3.org/Graphics/SVG/1.1/DTD/svg11.dtd">
<svg xmlns="http://www.w3.org/2000/svg" xmlns:xlink="http://www.w3.org/1999/xlink" version="1.1" width="640" height="480" viewBox="0 0 640 480" xml:space="preserve">
<desc>Created with Fabric.js 3.6.6</desc>
<defs>
</defs>
<g transform="matrix(0.89 0 0 0.89 332.28 240.27)" id="Capa_1"  >
<path style="stroke: none; stroke-width: 1; stroke-dasharray: none; stroke-linecap: butt; stroke-dashoffset: 0; stroke-linejoin: miter; stroke-miterlimit: 4; fill: rgb(255,255,255); fill-rule: nonzero; opacity: 1;"  transform=" translate(-243.5, -243.5)" d="M 428.683 326.004 c 2.329 -4.568 5.975 -11.733 9.611 -18.926 c 3.513 -6.948 6.304 -12.511 8.293 -16.532 c 1.142 -2.31 2.087 -4.246 2.739 -5.621 c 1.331 -2.81 2.588 -5.464 0.849 -8.849 c -1.104 -2.147 -3.179 -3.637 -5.567 -3.994 C 409.836 266.887 395 242.787 395 191.5 v -40 C 395 67.963 327.038 0 243.5 0 S 92 67.963 92 151.5 v 40 c 0 51.287 -14.836 75.387 -49.613 80.583 c -2.387 0.358 -4.46 1.847 -5.563 3.993 c -1.74 3.385 -0.482 6.039 0.849 8.849 c 0.652 1.375 1.597 3.312 2.739 5.621 c 1.99 4.021 4.78 9.584 8.293 16.532 c 3.636 7.192 7.283 14.357 9.611 18.926 C 44.419 339.142 36 357.687 36 377.957 V 455.5 c 0 17.369 14.131 31.5 31.5 31.5 h 352 c 17.369 0 31.5 -14.131 31.5 -31.5 v -77.543 C 451 357.687 442.581 339.142 428.683 326.004 z M 54.361 284.915 c 17.948 -4.775 31.373 -14.894 39.985 -30.169 C 102.861 239.643 107 218.955 107 191.5 v -40 C 107 76.233 168.234 15 243.5 15 S 380 76.233 380 151.5 v 40 c 0 34.689 5.699 80.959 52.638 93.419 c -4.046 8.146 -10.552 20.992 -16.087 31.859 c -6.186 -3.73 -13.019 -6.583 -20.364 -8.346 l -26.578 -6.379 c -1.937 -0.464 -3.976 -0.141 -5.672 0.899 c -1.696 1.041 -2.91 2.713 -3.373 4.648 c -0.259 1.081 -0.555 2.151 -0.844 3.223 l -23.703 -5.926 c -1.259 -0.314 -2.489 -0.77 -3.66 -1.354 l -0.237 -0.118 c -5.626 -2.813 -9.121 -8.469 -9.121 -14.759 v -16.031 c 24.529 -21.901 40 -53.743 40 -89.136 v -16 c 0 -0.064 -0.008 -0.126 -0.01 -0.19 c -0.004 -0.149 -0.01 -0.297 -0.023 -0.447 c -0.009 -0.105 -0.021 -0.208 -0.034 -0.312 c -0.017 -0.138 -0.038 -0.275 -0.063 -0.412 c -0.021 -0.114 -0.045 -0.227 -0.071 -0.339 c -0.028 -0.122 -0.059 -0.243 -0.094 -0.364 c -0.036 -0.125 -0.075 -0.248 -0.117 -0.371 c -0.036 -0.104 -0.073 -0.208 -0.114 -0.312 c -0.053 -0.135 -0.111 -0.267 -0.172 -0.399 c -0.041 -0.089 -0.083 -0.178 -0.128 -0.266 c -0.072 -0.14 -0.149 -0.276 -0.229 -0.41 c -0.03 -0.051 -0.054 -0.104 -0.086 -0.154 l -40 -64 c -2.154 -3.448 -6.664 -4.55 -10.167 -2.487 C 310.76 97.588 217.358 152 131.5 152 c -4.142 0 -7.5 3.357 -7.5 7.5 v 24 c 0 35.393 15.471 67.235 40 89.136 v 16.031 c 0 6.29 -3.495 11.945 -9.116 14.756 l -0.247 0.123 c -1.167 0.583 -2.396 1.038 -3.658 1.353 l -23.7 5.925 c -0.289 -1.072 -0.585 -2.142 -0.844 -3.223 c -0.463 -1.936 -1.676 -3.607 -3.373 -4.648 c -1.696 -1.04 -3.734 -1.363 -5.672 -0.899 l -26.578 6.379 c -7.345 1.763 -14.178 4.616 -20.364 8.346 C 64.914 305.91 58.407 293.061 54.361 284.915 z M 139 166.875 c 75.38 -2.47 151.625 -41.112 173.938 -53.323 L 348 169.65 v 13.85 c 0 57.621 -46.878 104.5 -104.5 104.5 S 139 241.121 139 183.5 V 166.875 z M 179 288.667 v -4.61 C 197.618 296.041 219.761 303 243.5 303 s 45.882 -6.959 64.5 -18.943 v 4.61 c 0 12.009 6.672 22.805 17.418 28.178 l 0.239 0.119 c 2.145 1.071 4.408 1.908 6.725 2.487 l 22.513 5.629 c -7.746 18.875 -20.25 35.734 -36.304 48.591 C 297.083 390.896 271.117 400 243.5 400 s -53.583 -9.104 -75.091 -26.329 c -16.054 -12.857 -28.559 -29.716 -36.305 -48.591 l 22.511 -5.629 c 2.319 -0.579 4.583 -1.416 6.723 -2.485 l 0.248 -0.124 C 172.328 311.472 179 300.676 179 288.667 z M 436 455.5 c 0 9.098 -7.402 16.5 -16.5 16.5 h -352 c -9.098 0 -16.5 -7.402 -16.5 -16.5 v -77.543 c 0 -26.227 17.812 -48.818 43.314 -54.939 l 19.486 -4.677 c 7.865 26.229 23.734 49.82 45.232 67.038 C 183.229 404.757 212.438 415 243.5 415 s 60.271 -10.243 84.467 -29.621 c 21.498 -17.218 37.367 -40.81 45.232 -67.038 l 19.486 4.677 C 418.188 329.139 436 351.73 436 377.957 V 455.5 z" stroke-linecap="round" />
</g>
</svg>