<?xml version="1.0" standalone="no"?>
<!DOCTYPE svg PUBLIC "-//W3C//DTD SVG 1.0//EN" "http://www.w3.org/TR/2001/REC-SVG-20010904/DTD/svg10.dtd">
<svg xmlns="http://www.w3.org/2000/svg" xmlns:xlink="http://www.w3.org/1999/xlink" id="body_1" width="58" height="43">

<g transform="matrix(0.08958333 0 0 0.08958333 0.33333212 -0)">
	<g transform="matrix(1.14 -0.09 0.09 1.14 327.59 415.98)">
        <path d="M40 0C 40 11.045695 36.094757 20.473785 28.284271 28.284271C 20.473785 36.094757 11.045695 40 0 40C -11.045695 40 -20.473785 36.094757 -28.284271 28.284271C -36.094757 20.473785 -40 11.045695 -40 0C -40 -11.045695 -36.094757 -20.473785 -28.284271 -28.284271C -20.473785 -36.094757 -11.045695 -40 0 -40C 11.045695 -40 20.473785 -36.094757 28.284271 -28.284271C 36.094757 -20.473785 40 -11.045695 40 0C 40 0.4654684 39.99188 0.9307951 39.97563 1.3959799" stroke="#FFFFFF" stroke-width="8" fill="#FFFFFF" fill-rule="nonzero" />
	</g>
</g>
</svg>